<svg width="133" height="42" viewBox="0 0 133 42" fill="none" xmlns="http://www.w3.org/2000/svg">
<g clip-path="url(#clip0)">
<path d="M24.1128 41.4071H20.7042L20.4207 32.7314L15.503 32.57L15.2143 41.4071H11.8047L12.0862 32.459L12.194 29.056L15.6139 29.1649L20.3097 29.3119L23.7348 29.4208L23.8437 32.8424L24.1128 41.4071Z" fill="#1B734F"/>
<path d="M18.2006 3.42566L14.9081 5.42987L8.02108 9.62125L4.38647 11.8331C4.38956 11.8495 4.39161 11.867 4.39469 11.8845C4.58166 13.0757 4.73884 14.2659 4.73884 15.4571C4.73884 15.5054 4.73781 15.5537 4.73781 15.602L8.5789 13.271L18.2027 7.42895L21.4952 5.4309L18.2006 3.42566Z" fill="#1B734F"/>
<path d="M27.805 9.27077L21.4932 5.42987L18.2007 3.42566L14.9082 5.42987L18.2007 7.42792L27.24 12.9154L31.0431 15.2228C31.0626 13.9945 31.2423 12.7663 31.4375 11.5381C31.4406 11.5217 31.4427 11.5042 31.4458 11.4857L27.805 9.27077Z" fill="#1B734F"/>
<path d="M12.7785 22.0566C13.7799 22.0566 14.5917 21.2444 14.5917 20.2425C14.5917 19.2407 13.7799 18.4285 12.7785 18.4285C11.7771 18.4285 10.9653 19.2407 10.9653 20.2425C10.9653 21.2444 11.7771 22.0566 12.7785 22.0566Z" fill="#F09330"/>
<path d="M23.4296 22.0566C24.431 22.0566 25.2428 21.2444 25.2428 20.2425C25.2428 19.2407 24.431 18.4285 23.4296 18.4285C22.4283 18.4285 21.6165 19.2407 21.6165 20.2425C21.6165 21.2444 22.4283 22.0566 23.4296 22.0566Z" fill="#F09330"/>
<path d="M12.4622 2.85215H13.5142V0H12.2866C7.31235 0 3.80205 2.02271 3.80205 6.79377C3.80205 8.24605 4.03731 9.64694 4.27051 11.0992C4.31057 11.3438 4.34858 11.5874 4.38556 11.8321C4.38865 11.8485 4.3907 11.866 4.39378 11.8834C4.58075 13.0747 4.73793 14.2649 4.73793 15.4561C4.73793 15.5044 4.7369 15.5527 4.7369 15.601V15.6473C4.69273 17.4089 4.00649 19.2939 0 19.2939V21.9395C4.15237 21.9395 4.73793 24.1688 4.73793 25.7762C4.73793 27.1309 4.52117 28.4845 4.29413 29.8371C4.28591 29.8833 4.27872 29.9306 4.27051 29.9769C4.06196 31.2287 3.85137 32.5227 3.81027 33.7838C3.80514 33.9329 3.80205 34.0809 3.80205 34.2299C3.80205 39.3083 7.21271 41.2189 11.8448 41.33C11.9907 41.3341 12.1376 41.3351 12.2866 41.3351H13.5142V38.4829H12.4622C9.18616 38.4829 7.83936 36.8755 7.83936 33.9709C7.83936 33.7098 7.84758 33.4508 7.86094 33.1929C7.91435 32.2206 8.06434 31.2606 8.24823 30.2379C8.48143 28.9922 8.65812 27.6962 8.65812 26.2953C8.71771 22.9765 7.07916 21.2138 4.44617 20.6434V20.5386C7.07813 19.9167 8.71668 18.2568 8.65812 14.937C8.65812 14.3759 8.62936 13.8393 8.58108 13.3141C8.58005 13.2987 8.57799 13.2854 8.57697 13.2699C8.50403 12.5011 8.38589 11.757 8.24823 10.9954C8.16605 10.5535 8.089 10.1125 8.02736 9.67367C8.02428 9.6562 8.02222 9.63975 8.02017 9.62125C7.90922 8.84012 7.83834 8.06721 7.83834 7.31384C7.83936 4.51205 9.00946 2.85215 12.4622 2.85215Z" fill="#1B734F"/>
<path d="M31.0409 15.4561C31.0409 15.3944 31.0409 15.3307 31.0419 15.269C31.0419 15.2536 31.0419 15.2372 31.043 15.2228C31.0625 13.9945 31.2423 12.7663 31.4375 11.5381C31.4405 11.5217 31.4426 11.5042 31.4457 11.4857C31.4488 11.4723 31.4498 11.46 31.4529 11.4456C31.4703 11.3305 31.4898 11.2143 31.5094 11.0992C31.7046 9.89156 31.8987 8.71884 31.9573 7.52248C31.9706 7.28095 31.9768 7.03838 31.9768 6.79377C31.9768 2.17688 28.6884 0.133614 23.9689 0.00513901C23.8118 0.0030834 23.6525 0 23.4933 0H22.2646V2.85215H23.3176C26.7704 2.85215 27.9405 4.51205 27.9405 7.31384C27.9405 7.58106 27.9313 7.85035 27.9148 8.12271C27.8933 8.50197 27.8542 8.88637 27.8059 9.27077C27.8029 9.28824 27.8018 9.30469 27.7987 9.32319C27.7289 9.87717 27.6354 10.4373 27.5306 10.9954C27.4156 11.6409 27.3118 12.2719 27.2409 12.9154C27.2378 12.9287 27.2368 12.9441 27.2358 12.9575C27.1639 13.5958 27.1217 14.2474 27.1217 14.936C27.0642 18.2558 28.7028 19.9157 31.3347 20.5375V20.6424C28.7028 21.2128 27.0642 22.9765 27.1217 26.2942C27.1217 27.6951 27.2974 28.9912 27.5316 30.2369C27.7648 31.5319 27.9415 32.7262 27.9415 33.9709C27.9415 36.8755 26.5958 38.4829 23.3187 38.4829H22.2657V41.3351H23.4943C28.3494 41.3351 31.9778 39.4676 31.9778 34.2289C31.9778 32.829 31.7446 31.3767 31.5104 29.9769C31.2751 28.577 31.0419 27.1771 31.0419 25.7752C31.0419 24.1677 31.6265 21.9384 35.7819 21.9384V19.2929C31.6255 19.2939 31.0409 17.2701 31.0409 15.4561Z" fill="#1B734F"/>
<path d="M46.4158 24.4637C45.8949 24.7156 44.9796 24.8409 43.9924 24.8409C41.0481 24.8409 39.199 23.1163 39.199 20.3145C39.199 17.7995 40.9403 15.6452 44.3869 15.6452C45.0156 15.6452 45.7871 15.7346 46.4158 15.9505L45.9669 18.3216C45.6617 18.1962 45.2313 18.1058 44.5666 18.1058C43.3637 18.1058 42.5018 18.9321 42.5202 20.2076C42.5202 21.6445 43.5075 22.3269 44.657 22.3269C45.2138 22.3269 45.6628 22.255 46.0758 22.0936L46.4158 24.4637Z" fill="#1B734F"/>
<path d="M51.7473 24.8584C49.1082 24.8584 47.0618 23.1882 47.0618 20.3145C47.0618 17.4942 48.9109 15.6267 51.9271 15.6267C54.6916 15.6267 56.5232 17.4942 56.5232 20.1531C56.5232 23.3681 54.2252 24.8584 51.7658 24.8584H51.7473ZM51.8377 22.5777C52.7171 22.5777 53.1845 21.662 53.1845 20.2426C53.1845 19.0215 52.79 17.9074 51.8377 17.9074C50.7611 17.9074 50.4015 19.075 50.4015 20.2426C50.4015 21.5715 50.832 22.5777 51.8202 22.5777H51.8377Z" fill="#1B734F"/>
<path d="M67.0974 11.8917V21.8778C67.0974 22.9734 67.1334 24.0691 67.1693 24.6621H64.2785L64.1532 23.477H64.1172C63.5429 24.4648 62.4653 24.8605 61.4606 24.8605C59.4142 24.8605 57.7089 23.0824 57.7089 20.3166C57.6904 17.3349 59.5755 15.6287 61.6578 15.6287C62.6276 15.6287 63.4176 15.9165 63.8121 16.4911H63.848V11.8917H67.0974ZM63.848 19.6505C63.848 19.5251 63.848 19.3628 63.8296 19.2374C63.7042 18.6083 63.2368 18.1058 62.5547 18.1058C61.4781 18.1058 60.9932 19.076 60.9932 20.2251C60.9932 21.59 61.6578 22.291 62.5372 22.291C63.2019 22.291 63.6857 21.8243 63.7936 21.2313C63.847 21.0514 63.847 20.8541 63.847 20.6383V19.6505H63.848Z" fill="#1B734F"/>
<path d="M71.7285 21.3742C71.8364 22.0751 72.8596 22.4698 74.0081 22.4698C74.8341 22.4698 75.6241 22.3804 76.4141 22.1286L76.827 24.2839C75.7679 24.6971 74.6194 24.841 73.5242 24.841C70.4187 24.841 68.6589 23.1348 68.6589 20.333C68.6589 18.2856 69.9872 15.6277 73.2366 15.6277C76.0915 15.6277 77.3119 17.7296 77.3119 20.1542C77.3119 20.6753 77.24 21.1604 77.1866 21.3752H71.7285V21.3742ZM74.3317 19.1829C74.3317 18.6803 74.0985 17.746 73.0753 17.746C72.124 17.746 71.747 18.6258 71.6926 19.1829H74.3317Z" fill="#1B734F"/>
<path d="M81.2969 15.8251L82.2482 19.5786C82.428 20.2796 82.5533 20.962 82.6612 21.662H82.7146C82.8224 20.9435 82.9303 20.3145 83.1091 19.5786L83.9884 15.8251H87.3816L84.1682 24.6621H80.9188L77.7773 15.8251H81.2969Z" fill="#1B734F"/>
<path d="M93.7559 11.8917H97.0052V24.6621H93.7559V11.8917Z" fill="#1B734F"/>
<path d="M98.9983 11.8917H102.248V24.6621H98.9983V11.8917Z" fill="#1B734F"/>
<path d="M112.104 22.5058C112.104 23.3856 112.157 24.2119 112.247 24.6611H109.322L109.16 23.8892H109.088C108.478 24.5902 107.599 24.8594 106.646 24.8594C104.833 24.8594 103.721 23.548 103.721 22.0751C103.721 19.704 105.857 18.6443 108.855 18.6443V18.5724C108.855 18.2137 108.586 17.818 107.402 17.818C106.468 17.818 105.499 18.1417 104.906 18.4645L104.349 16.4346C104.906 16.1293 106.18 15.6267 108.012 15.6267C111.045 15.6267 112.105 17.3154 112.105 19.5241V22.5058H112.104ZM108.961 20.6198C107.633 20.6198 106.896 20.9785 106.896 21.7689C106.896 22.3259 107.256 22.6127 107.811 22.6127C108.278 22.6127 108.763 22.2889 108.924 21.8048C108.96 21.6609 108.96 21.4996 108.96 21.3382V20.6198H108.961Z" fill="#1B734F"/>
<path d="M122.784 23.3681C122.784 24.9129 122.479 26.3857 121.402 27.319C120.396 28.1813 119.05 28.4146 117.686 28.4146C116.465 28.4146 115.226 28.1813 114.401 27.7496L115.011 25.3065C115.549 25.6118 116.555 25.953 117.559 25.953C118.708 25.953 119.606 25.324 119.606 23.9591V23.5644H119.57C119.032 24.2294 118.242 24.5521 117.362 24.5521C115.208 24.5521 113.646 22.8275 113.646 20.259C113.646 17.4747 115.441 15.6246 117.65 15.6246C118.727 15.6246 119.463 16.0378 119.929 16.7737H119.965L120.073 15.822H122.856C122.82 16.379 122.784 17.1334 122.784 18.5343V23.3681ZM119.553 19.4707C119.553 19.3268 119.535 19.1829 119.518 19.0575C119.374 18.411 118.961 18.0513 118.369 18.0513C117.597 18.0513 116.933 18.8057 116.933 20.2066C116.933 21.3557 117.471 22.2005 118.369 22.2005C118.962 22.2005 119.392 21.8058 119.5 21.3207C119.553 21.1408 119.553 20.8541 119.553 20.6557V19.4707Z" fill="#1B734F"/>
<path d="M127.417 21.3742C127.524 22.0751 128.548 22.4698 129.696 22.4698C130.522 22.4698 131.312 22.3804 132.102 22.1286L132.515 24.2839C131.456 24.6971 130.307 24.841 129.212 24.841C126.107 24.841 124.347 23.1348 124.347 20.333C124.347 18.2856 125.675 15.6277 128.925 15.6277C131.779 15.6277 133 17.7296 133 20.1542C133 20.6753 132.928 21.1604 132.875 21.3752H127.417V21.3742ZM130.02 19.1829C130.02 18.6803 129.787 17.746 128.763 17.746C127.812 17.746 127.435 18.6258 127.381 19.1829H130.02Z" fill="#1B734F"/>
<path d="M90.1296 14.9082H90.147C91.1528 14.9082 91.7989 14.2258 91.7989 13.3819C91.7804 12.4836 91.1528 11.8372 90.147 11.8372C89.1413 11.8372 88.4951 12.4836 88.4951 13.3819C88.4961 14.2258 89.1249 14.9082 90.1296 14.9082Z" fill="#F09330"/>
<path d="M85.7133 14.9082H85.7308C86.7365 14.9082 87.3827 14.2258 87.3827 13.3819C87.3642 12.4836 86.7365 11.8372 85.7308 11.8372C84.725 11.8372 84.0789 12.4836 84.0789 13.3819C84.0799 14.2258 84.7086 14.9082 85.7133 14.9082Z" fill="#F09330"/>
<path d="M79.4118 14.9082H79.4293C80.435 14.9082 81.0812 14.2258 81.0812 13.3819C81.0627 12.4836 80.435 11.8372 79.4293 11.8372C78.4235 11.8372 77.7773 12.4836 77.7773 13.3819C77.7784 14.2258 78.4071 14.9082 79.4118 14.9082Z" fill="#F09330"/>
<path d="M91.764 15.8251H88.5146V24.6621H91.764V15.8251Z" fill="#1B734F"/>
</g>
<defs>
<clipPath id="clip0">
<rect width="133" height="41.407" fill="white"/>
</clipPath>
</defs>
</svg>
